<svg width="32" height="32" viewBox="0 0 32 32" fill="none" xmlns="http://www.w3.org/2000/svg">
<rect width="32" height="32" rx="8" fill="white"/>
<g clip-path="url(#clip0_248_4127)">
<path d="M16 28C22.6274 28 28 22.6274 28 16C28 9.37258 22.6274 4 16 4C9.37258 4 4 9.37258 4 16C4 22.6274 9.37258 28 16 28Z" fill="url(#paint0_linear_248_4127)"/>
<path d="M11.0561 23.5421C10.4693 23.3058 9.95522 22.919 9.56549 22.4208C9.17576 21.9225 8.92419 21.3304 8.8361 20.704L5.0621 19.1921C4.7572 18.1554 4.60164 17.0806 4.6001 16C4.6061 15.712 4.6241 15.4241 4.6421 15.1421L10.1861 17.3681C10.8039 16.8857 11.5623 16.6181 12.3461 16.6061C12.5381 16.3901 14.6441 14.008 15.4181 13.066C15.4067 12.9464 15.4007 12.8263 15.4001 12.7061C15.4001 11.5126 15.8742 10.368 16.7181 9.52408C17.562 8.68017 18.7066 8.20605 19.9001 8.20605C21.0936 8.20605 22.2382 8.68017 23.0821 9.52408C23.926 10.368 24.4001 11.5126 24.4001 12.7061C24.4001 13.8995 23.926 15.0441 23.0821 15.8881C22.2382 16.732 21.0936 17.2061 19.9001 17.2061L19.5401 17.188L16.0001 20.254C15.9941 20.6982 15.9067 21.1375 15.7421 21.55C15.4738 22.2167 15.0122 22.7878 14.4166 23.1899C13.821 23.5919 13.1187 23.8065 12.4001 23.8061C11.9393 23.8049 11.4831 23.7153 11.0561 23.5421ZM11.5061 22.432C12.0965 22.6688 12.7567 22.6615 13.3418 22.4117C13.9268 22.162 14.3887 21.6902 14.6261 21.1C14.8629 20.5096 14.8556 19.8494 14.6058 19.2644C14.3561 18.6794 13.8843 18.2174 13.2941 17.9801C13.0177 17.8667 12.7227 17.8057 12.4241 17.8H12.4001C12.1258 17.8018 11.8539 17.8505 11.5961 17.944L13.0721 18.532C13.5142 18.7106 13.8673 19.0573 14.0541 19.496C14.2408 19.9348 14.2458 20.4296 14.0681 20.872C13.8907 21.3152 13.5444 21.6698 13.1056 21.8577C12.6668 22.0456 12.1713 22.0515 11.7281 21.8741L10.2521 21.2741C10.5141 21.8007 10.9603 22.2127 11.5061 22.432ZM17.2001 12.7C17.2001 13.4161 17.4846 14.1029 17.9909 14.6093C18.4973 15.1156 19.184 15.4 19.9001 15.4C20.6162 15.4 21.3029 15.1156 21.8093 14.6093C22.3156 14.1029 22.6001 13.4161 22.6001 12.7C22.6001 11.984 22.3156 11.2972 21.8093 10.7909C21.3029 10.2845 20.6162 10 19.9001 10C19.184 10 18.4973 10.2845 17.9909 10.7909C17.4846 11.2972 17.2001 11.984 17.2001 12.7ZM17.8001 12.7C17.8001 12.1431 18.0213 11.609 18.4152 11.2151C18.809 10.8213 19.3431 10.6 19.9001 10.6C20.4571 10.6 20.9912 10.8213 21.385 11.2151C21.7788 11.609 22.0001 12.1431 22.0001 12.7C22.0001 13.257 21.7788 13.7911 21.385 14.185C20.9912 14.5788 20.4571 14.8 19.9001 14.8C19.3431 14.8 18.809 14.5788 18.4152 14.185C18.0213 13.7911 17.8001 13.257 17.8001 12.7Z" fill="white"/>
</g>
<defs>
<linearGradient id="paint0_linear_248_4127" x1="16" y1="28" x2="16" y2="4" gradientUnits="userSpaceOnUse">
<stop stop-color="#0082B6"/>
<stop offset="1" stop-color="#0F1C30"/>
</linearGradient>
<clipPath id="clip0_248_4127">
<rect width="24" height="24" fill="white" transform="translate(4 4)"/>
</clipPath>
</defs>
</svg>
