<svg width="57" height="56" viewBox="0 0 57 56" fill="none" xmlns="http://www.w3.org/2000/svg">
<rect x="0.75" width="56" height="56" rx="28" fill="#0D9C40"/>
<path d="M27.4557 41.446C25.4543 41.2555 23.4267 40.5366 21.6827 39.3991C20.222 38.4463 19.8923 38.0566 19.8923 37.2741C19.8923 35.7065 21.619 32.9579 24.5692 29.8283C26.2467 28.0499 28.5809 25.9654 28.8325 26.0202C29.3242 26.1299 33.2491 29.9582 34.7184 31.7569C37.0438 34.6094 38.114 36.9421 37.5702 37.9815C37.1566 38.7726 34.5969 40.3172 32.7169 40.909C31.1666 41.3998 29.1304 41.6077 27.4557 41.446ZM17.9226 35.6458C16.7107 33.7865 16.0976 31.9532 15.7997 29.3058C15.7013 28.431 15.736 27.9315 16.0224 26.1357C16.3781 23.8982 17.6507 21.3114 19.1837 19.7177C19.8373 19.0392 19.8952 19.0219 20.6906 19.2904C21.6566 19.6167 22.6863 20.3269 24.2857 21.7733L25.22 22.6163L24.7109 23.2429C22.3421 26.1473 19.846 30.2643 18.906 32.8107C18.3941 34.1936 18.1887 35.5852 18.4085 36.1626C18.556 36.5524 18.4201 36.408 17.9226 35.6458ZM39.2102 35.9605C39.3288 35.3773 39.1784 34.3033 38.8226 33.2207C38.0561 30.8763 35.4848 26.511 33.1247 23.546L32.3814 22.6135L33.1854 21.8744C34.2354 20.9101 34.9642 20.3327 35.7509 19.8447C36.3728 19.4579 37.2578 19.1172 37.6396 19.1172C37.8739 19.1172 38.7011 19.9747 39.3692 20.913C40.4047 22.3623 41.1654 24.1234 41.5501 25.9538C41.7988 27.1375 41.8191 29.6695 41.5906 30.8475C41.4026 31.8146 41.0034 33.0705 40.6158 33.9251C40.3237 34.5632 39.6006 35.8017 39.2825 36.2059C39.1205 36.408 39.1205 36.408 39.2102 35.9605ZM27.6698 18.6726C26.5794 18.1183 24.8989 17.5264 23.9705 17.3647C23.6437 17.3099 23.0912 17.2781 22.7355 17.2954C21.969 17.333 22.0037 17.2954 23.2329 16.7151C24.2539 16.233 25.1072 15.95 26.2641 15.7075C27.5657 15.4332 30.0097 15.4304 31.291 15.7017C32.6735 15.9933 34.3019 16.5996 35.2188 17.1626L35.4906 17.3301L34.8659 17.2983C33.6222 17.2348 31.8116 17.7372 29.8651 18.6841C29.2779 18.9699 28.7689 19.198 28.7313 19.1894C28.6966 19.1836 28.2164 18.9497 27.6698 18.6726Z" fill="white"/>
</svg>
