<svg width="276" height="276" viewBox="0 0 276 276" fill="none" xmlns="http://www.w3.org/2000/svg">
<mask id="mask0_13784_66060" style="mask-type:alpha" maskUnits="userSpaceOnUse" x="0" y="0" width="276" height="276">
<path d="M0 276H276V0H0V276Z" fill="#D9D9D9"/>
</mask>
<g mask="url(#mask0_13784_66060)">
<path opacity="0.2" d="M107.084 3.93628C103.176 3.93628 100.007 7.10472 100.007 11.0132V94.3334C100.007 98.2419 96.839 101.41 92.9305 101.41H12.6004C8.69189 101.41 5.52344 104.579 5.52344 108.487V169.681C5.52344 173.59 8.69188 176.758 12.6004 176.758H92.9305C96.839 176.758 100.007 179.927 100.007 183.835V266.557C100.007 270.466 103.176 273.634 107.084 273.634H167.681C171.589 273.634 174.757 270.466 174.757 266.557V183.835C174.757 179.927 177.926 176.758 181.834 176.758H262.165C266.073 176.758 269.241 173.59 269.241 169.681V108.487C269.241 104.579 266.073 101.41 262.165 101.41H181.834C177.926 101.41 174.757 98.2418 174.757 94.3334V11.0132C174.757 7.10471 171.589 3.93628 167.681 3.93628H107.084Z" fill="url(#paint0_linear_13784_66060)"/>
</g>
<defs>
<linearGradient id="paint0_linear_13784_66060" x1="5.9737" y1="5.51396" x2="268.361" y2="273.184" gradientUnits="userSpaceOnUse">
<stop stop-color="#EA69FF"/>
<stop offset="1" stop-color="#999999" stop-opacity="0"/>
</linearGradient>
</defs>
</svg>
