<svg width="21" height="16" viewBox="0 0 21 16" fill="none" xmlns="http://www.w3.org/2000/svg">
<path d="M12.5658 12.3515H7.73964V3.64288H12.5658V12.3515Z" fill="#FF5F00"/>
<path d="M8.04818 8.00001C8.04818 6.23343 8.87195 4.65982 10.1548 3.64572C9.21668 2.90416 8.03275 2.46155 6.74607 2.46155C3.69998 2.46155 1.23077 4.94116 1.23077 8.00001C1.23077 11.0589 3.69998 13.5385 6.74607 13.5385C8.03275 13.5385 9.21668 13.0959 10.1548 12.3543C8.87195 11.3402 8.04818 9.76658 8.04818 8.00001Z" fill="#FF0015"/>
<path d="M19.0769 8.00001C19.0769 11.0589 16.6077 13.5385 13.5616 13.5385C12.2749 13.5385 11.091 13.0959 10.1526 12.3543C11.4358 11.3402 12.2595 9.76658 12.2595 8.00001C12.2595 6.23343 11.4358 4.65982 10.1526 3.64572C11.091 2.90416 12.2749 2.46155 13.5616 2.46155C16.6077 2.46155 19.0769 4.94116 19.0769 8.00001Z" fill="#FF9F00"/>
</svg>
