<svg width="31" height="16" viewBox="0 0 31 16" fill="none" xmlns="http://www.w3.org/2000/svg">
<path d="M11.8499 4.15183L8.35901 12.4803H6.08154L4.36325 5.83432C4.25832 5.42574 4.16821 5.27514 3.85097 5.10232C3.33376 4.82088 2.47831 4.55795 1.72656 4.39377L1.77717 4.15183H5.44335C5.90996 4.15183 6.33089 4.4629 6.43705 5.0011L7.34433 9.82021L9.58724 4.15183H11.8499ZM20.7734 9.76096C20.7833 7.56372 17.7343 7.44152 17.7553 6.46017C17.7615 6.16144 18.0466 5.8442 18.6687 5.76273C18.9773 5.72199 19.8278 5.69113 20.7932 6.13552L21.1721 4.36909C20.6537 4.18022 19.9871 4 19.1563 4C17.027 4 15.5284 5.13195 15.5161 6.75272C15.5013 7.95256 16.5863 8.62037 17.4022 9.01908C18.2416 9.42767 18.5231 9.68936 18.5194 10.0535C18.5132 10.6127 17.8503 10.8596 17.2294 10.8682C16.1469 10.8855 15.5173 10.5757 15.0161 10.3424L14.6261 12.168C15.1285 12.3989 16.058 12.6001 17.0221 12.61C19.2859 12.61 20.766 11.4928 20.7734 9.76096ZM28.3897 12.4803L26.6504 4.15183H24.8111C24.3976 4.15183 24.0483 4.39254 23.894 4.76286L20.6611 12.4803H22.9225L23.3718 11.2361H26.1356L26.3961 12.4803H28.3897ZM23.9927 9.52889L25.1271 6.40215L25.7801 9.52889H23.9927ZM14.9285 4.15183L13.1473 12.4803H10.992L12.7745 4.15183H14.9285Z" fill="white"/>
</svg>
