<svg width="83" height="40" viewBox="0 0 83 40" fill="none" xmlns="http://www.w3.org/2000/svg">
<path d="M72.6608 31.3701C71.5847 31.3701 70.4796 31.2537 69.3455 31.0211C68.2113 30.7884 67.1643 30.3958 66.2047 29.8433C65.245 29.2616 64.4307 28.491 63.7618 27.5313C63.0929 26.5425 62.6567 25.3211 62.4531 23.867H68.6475C68.822 24.3905 69.1273 24.8412 69.5636 25.2193C70.0289 25.5974 70.5523 25.8736 71.134 26.0481C71.7447 26.2226 72.3554 26.3099 72.9661 26.3099C73.3733 26.3099 73.7804 26.2808 74.1875 26.2226C74.5947 26.1645 74.9727 26.0481 75.3217 25.8736C75.6707 25.6992 75.947 25.481 76.1506 25.2193C76.3541 24.9285 76.4559 24.565 76.4559 24.1287C76.4559 23.6634 76.3105 23.2999 76.0197 23.0382C75.7289 22.7764 75.3217 22.5729 74.7983 22.4275C74.2748 22.253 73.6786 22.093 73.0097 21.9476C71.8174 21.6859 70.5378 21.3951 69.171 21.0752C67.8041 20.7553 66.6263 20.29 65.6376 19.6793C65.2304 19.3884 64.8669 19.0685 64.547 18.7196C64.2271 18.3706 63.9654 17.978 63.7618 17.5418C63.5582 17.1055 63.3983 16.6548 63.2819 16.1895C63.1656 15.6951 63.1075 15.1716 63.1075 14.6191C63.1075 13.3686 63.3692 12.3071 63.8927 11.4346C64.4452 10.5331 65.1723 9.80606 66.0738 9.25351C66.9753 8.70096 67.9786 8.30836 69.0837 8.07571C70.1888 7.81397 71.323 7.68311 72.4863 7.68311C74.0567 7.68311 75.5108 7.94484 76.8485 8.46831C78.1863 8.96269 79.2914 9.7479 80.1638 10.8239C81.0363 11.8709 81.5743 13.2377 81.7778 14.9244H75.9324C75.8161 14.2846 75.4235 13.7757 74.7546 13.3976C74.0858 12.9905 73.2569 12.7869 72.2682 12.7869C71.9192 12.7869 71.5411 12.816 71.134 12.8742C70.7559 12.9323 70.4069 13.0341 70.087 13.1795C69.7671 13.3249 69.5054 13.5285 69.3018 13.7902C69.0983 14.0229 68.9965 14.3428 68.9965 14.7499C68.9965 15.0698 69.0837 15.3606 69.2582 15.6224C69.4618 15.8841 69.7381 16.1022 70.087 16.2767C70.4651 16.4512 70.9159 16.6112 71.4393 16.7566C72.4281 16.9892 73.4169 17.2073 74.4057 17.4109C75.4235 17.5854 76.325 17.7744 77.1102 17.978C78.0699 18.1816 78.9424 18.516 79.7276 18.9813C80.5419 19.4466 81.1962 20.0864 81.6906 20.9007C82.2141 21.6859 82.4758 22.7183 82.4758 23.9979C82.4758 25.452 82.185 26.6588 81.6033 27.6185C81.0217 28.5491 80.2365 29.2907 79.2477 29.8433C78.288 30.3958 77.2266 30.7884 76.0633 31.0211C74.9291 31.2537 73.7949 31.3701 72.6608 31.3701Z" fill="#9E60EC"/>
<path d="M48.5911 31.3703C45.2177 31.3703 42.6149 30.5124 40.7827 28.7966C38.9797 27.0517 38.0781 24.4343 38.0781 20.9445V8.07593H44.1853V20.5083C44.1853 21.5552 44.3307 22.4859 44.6215 23.3001C44.9414 24.0853 45.4212 24.7106 46.061 25.1759C46.7299 25.6412 47.5878 25.8739 48.6347 25.8739C49.7689 25.8739 50.6414 25.6267 51.2521 25.1323C51.8628 24.6379 52.2845 23.9836 52.5171 23.1693C52.7498 22.3259 52.8661 21.4389 52.8661 20.5083V8.07593H58.9296V20.9445C58.9296 24.5797 58.0136 27.2262 56.1814 28.8838C54.3784 30.5415 51.8483 31.3703 48.5911 31.3703Z" fill="#9E60EC"/>
<path d="M27.2109 31.0648V0.180176H33.3181V31.0648H27.2109Z" fill="#9E60EC"/>
<path d="M-0.0078125 39.6584V8.07577H5.70672L6.01208 10.9548C6.94269 9.82066 8.00416 8.99184 9.19651 8.46837C10.4179 7.9449 11.7557 7.68317 13.2098 7.68317C15.4781 7.68317 17.3539 8.20664 18.8371 9.25357C20.3202 10.3005 21.4253 11.7255 22.1524 13.5286C22.9085 15.3025 23.2865 17.2946 23.2865 19.5048C23.2865 21.7732 22.8939 23.8089 22.1087 25.612C21.3526 27.3859 20.2039 28.7964 18.6626 29.8433C17.1212 30.8612 15.2019 31.3701 12.9044 31.3701C11.9156 31.3701 10.985 31.2538 10.1126 31.0211C9.24013 30.7885 8.46947 30.4831 7.80059 30.1051C7.13172 29.6979 6.56463 29.2472 6.09932 28.7528V39.6584H-0.0078125ZM11.8575 25.8737C13.2243 25.8737 14.3003 25.5683 15.0855 24.9576C15.8707 24.3469 16.4233 23.5763 16.7432 22.6456C17.0631 21.686 17.223 20.6972 17.223 19.6793C17.223 18.5742 17.0485 17.5273 16.6996 16.5385C16.3506 15.5497 15.7689 14.7645 14.9547 14.1829C14.1695 13.5722 13.0934 13.2668 11.7266 13.2668C10.5052 13.2668 9.47278 13.5722 8.62942 14.1829C7.78605 14.7645 7.14626 15.5352 6.71003 16.4949C6.27381 17.4546 6.0557 18.487 6.0557 19.5921C6.0557 20.6972 6.25927 21.7296 6.66641 22.6893C7.10263 23.649 7.74243 24.4196 8.5858 25.0013C9.45824 25.5829 10.5488 25.8737 11.8575 25.8737Z" fill="#9E60EC"/>
<path d="M6.07812 20.1223C6.07812 20.1223 6.22582 25.9033 11.8779 25.9033C17.1954 25.9033 17.1954 20.1223 17.1954 20.1223L17.5862 30.4011C17.5862 30.4011 15.3467 31.5205 12.0482 31.32C8.06741 31.0781 6.07812 28.7093 6.07812 28.7093V20.1223Z" fill="url(#paint0_linear_13784_64380)"/>
<path d="M-0.0078125 8.06567H5.71276L6.00487 10.9503C6.00487 10.9503 3.83518 12.3792 2.48364 14.6797C0.735167 17.6558 -0.0078125 22.9003 -0.0078125 22.9003V8.06567Z" fill="url(#paint1_linear_13784_64380)"/>
<defs>
<linearGradient id="paint0_linear_13784_64380" x1="17.8357" y1="26.3541" x2="6.07812" y2="26.3541" gradientUnits="userSpaceOnUse">
<stop stop-color="#9E60EC"/>
<stop offset="1" stop-color="#623A95"/>
</linearGradient>
<linearGradient id="paint1_linear_13784_64380" x1="2.99853" y1="8.1115" x2="2.99853" y2="22.7702" gradientUnits="userSpaceOnUse">
<stop stop-color="#9E60EC"/>
<stop offset="1" stop-color="#623A95"/>
</linearGradient>
</defs>
</svg>
