<svg width="40" height="17" viewBox="0 0 40 17" fill="none" xmlns="http://www.w3.org/2000/svg">
<path d="M3.86198 2.73865L2.06451 6.92204H3.23429L3.56597 6.08393H5.49539L5.82706 6.92204H7.02537L5.22791 2.73865H3.86198ZM4.52889 3.70871L5.11735 5.17094H3.94044L4.52889 3.70871Z" fill="#016FD0"/>
<path d="M7.14664 6.91846V2.73508L8.81215 2.74221L9.77864 5.43841L10.7237 2.73508H12.375V6.91846H11.33V3.83709L10.2209 6.91846H9.30431L8.19159 3.83709V6.91846H7.14664Z" fill="#016FD0"/>
<path d="M13.0918 6.91846V2.73508H16.5049V3.66948H14.151V4.38632H16.4478V5.26722H14.1475V6.00903H16.5013V6.91846H13.0918Z" fill="#016FD0"/>
<path d="M17.1076 2.73865V6.92204H18.1525V5.43485H18.5912L19.8466 6.92204H21.1233L19.7467 5.38135C20.3102 5.33499 20.8951 4.84996 20.8951 4.09745C20.8951 3.21655 20.2032 2.74222 19.4329 2.74222L17.1076 2.73865ZM18.1525 3.67305H19.3473C19.6326 3.67305 19.843 3.89773 19.843 4.11171C19.843 4.38989 19.572 4.55038 19.3615 4.55038H18.1525V3.67305Z" fill="#016FD0"/>
<path d="M22.3894 6.91846H21.3231V2.73508H22.3894V6.91846Z" fill="#016FD0"/>
<path d="M24.9216 6.91847H24.6897C23.5735 6.91847 22.8994 6.04114 22.8994 4.84639C22.8994 3.62312 23.5699 2.73865 24.9751 2.73865H26.1306V3.73011H24.9358C24.3652 3.73011 23.9586 4.17591 23.9586 4.85709C23.9586 5.66666 24.4223 6.00547 25.0856 6.00547H25.3602L24.9216 6.91847Z" fill="#016FD0"/>
<path d="M27.1969 2.73864L25.3994 6.91846H26.5692L26.9009 6.08036H28.8303L29.162 6.91846H30.3567L28.5593 2.73508L27.1969 2.73864ZM27.8603 3.70871L28.4487 5.17093H27.2718L27.8603 3.70871Z" fill="#016FD0"/>
<path d="M30.478 6.91846V2.73508H31.8083L33.5059 5.36351V2.73508H34.5508V6.91846H33.2633L31.5229 4.22227V6.91846H30.478Z" fill="#016FD0"/>
<path d="M9.67877 14.2367V10.0533H13.0918V10.9877H10.738V11.7046H13.0383V12.5855H10.738V13.3273H13.0918V14.2367H9.67877Z" fill="#016FD0"/>
<path d="M26.3945 14.2367V10.0533H29.8075V10.9877H27.4537V11.7046H29.7433V12.5855H27.4537V13.3273H29.8075V14.2367H26.3945Z" fill="#016FD0"/>
<path d="M13.2238 14.2367L14.8857 12.1718L13.1845 10.0533H14.5005L15.5134 11.3622L16.5298 10.0533H17.7959L16.1161 12.1432L17.7816 14.2331H16.4656L15.4813 12.9457L14.5219 14.2331L13.2238 14.2367Z" fill="#016FD0"/>
<path d="M17.9065 10.0569V14.2403H18.9799V12.9207H20.082C21.0128 12.9207 21.7189 12.425 21.7189 11.4656C21.7189 10.6703 21.1661 10.0605 20.2175 10.0605H17.9065V10.0569ZM18.9799 11.002H20.139C20.4386 11.002 20.6561 11.1874 20.6561 11.4834C20.6561 11.7616 20.4422 11.9649 20.1355 11.9649H18.9799V11.002Z" fill="#016FD0"/>
<path d="M22.1683 10.0533V14.2367H23.2132V12.7495H23.6519L24.9073 14.2367H26.1841L24.8074 12.696C25.3709 12.6497 25.9558 12.1646 25.9558 11.4121C25.9558 10.5312 25.2639 10.0569 24.4936 10.0569L22.1683 10.0533ZM23.2168 10.9913H24.4116C24.6969 10.9913 24.9073 11.216 24.9073 11.43C24.9073 11.7081 24.6362 11.8686 24.4258 11.8686H23.2168V10.9913Z" fill="#016FD0"/>
<path d="M30.2926 13.3273H32.386C32.6963 13.3273 32.8283 13.1597 32.8283 12.9778C32.8283 12.803 32.6963 12.6247 32.386 12.6247H31.4409C30.6207 12.6247 30.1606 12.1254 30.1606 11.3729C30.1606 10.7024 30.5814 10.0569 31.8011 10.0569H33.8375L33.3989 10.9984H31.6371C31.3018 10.9984 31.1984 11.1767 31.1984 11.3444C31.1984 11.5191 31.3268 11.7081 31.5836 11.7081H32.575C33.4916 11.7081 33.8875 12.2288 33.8875 12.91C33.8875 13.6411 33.4452 14.2403 32.5251 14.2403H30.2926V13.3273Z" fill="#016FD0"/>
<path d="M34.13 13.3273H36.2235C36.5338 13.3273 36.6657 13.1597 36.6657 12.9778C36.6657 12.803 36.5338 12.6247 36.2235 12.6247H35.2784C34.4581 12.6247 33.998 12.1254 33.998 11.3729C33.998 10.7024 34.4189 10.0569 35.6386 10.0569H37.675L37.2363 10.9984H35.4745C35.1393 10.9984 35.0359 11.1767 35.0359 11.3444C35.0359 11.5191 35.1643 11.7081 35.421 11.7081H36.4125C37.3291 11.7081 37.7249 12.2288 37.7249 12.91C37.7249 13.6411 37.2827 14.2403 36.3626 14.2403H34.13V13.3273Z" fill="#016FD0"/>
</svg>
